<svg xmlns="http://www.w3.org/2000/svg" width="16in" height="8in" viewBox="0 0 1152 576"><defs><style>.a{filter:url(#b)}.b{fill:#fff}.c{mask:url(#a)}.d{fill:#821d1d}.e{fill:#3e9316}.f{fill:#b8d871}</style><filter id="b" x="606" y="30" width="516" height="516" filterUnits="userSpaceOnUse" color-interpolation-filters="sRGB"><feColorMatrix values="-1 0 0 0 1 0 -1 0 0 1 0 0 -1 0 1 0 0 0 1 0" result="invert"/><feFlood flood-color="#fff" result="bg"/><feBlend in="invert" in2="bg"/></filter><mask id="a" x="606" y="30" width="516" height="516" maskUnits="userSpaceOnUse"><g class="a"><rect class="b" x="982.326" y="104.789" width="48.6" height="144" rx="3.6" ry="3.6"/><path class="b" d="M894.44 80.73l-146.8 120.11a8.188 8.188 0 0 0-2.64 5.572V423.8a7.221 7.221 0 0 0 7.2 7.2h293.6a7.221 7.221 0 0 0 7.2-7.2V206.412a8.188 8.188 0 0 0-2.64-5.573L903.56 80.73a7.524 7.524 0 0 0-9.12 0z"/></g></mask></defs><circle class="c d" cx="864" cy="288" r="258"/><path class="e" d="M758.652 108.347c5.955-8.668 147.807 83.124 155.178 205.347 8.358 138.438-124.49 147.881-130.866 146.968-12.959-1.856-56.437-6.776-90.375-60.393-27.076-42.77-24.575-82.717-12.995-124.016 12.453-44.426 31.046-67.647 43.87-88.821 41.7-68.78 29.425-70.642 35.188-79.085"/><path class="f" d="M923.65 313.099c-6.974-115.554-130.075-206.529-158.302-214.37-8.774-2.431-13.035 1.5-14.782 4.053l-.02.014c-2.924 4.28-3.394 8.01-3.805 11.308-.807 6.517-2.5 20.088-31.681 68.229-.013.007-7.43 11.748-7.43 11.748-11.997 18.627-26.93 41.816-37.498 79.522-4.764 16.992-8.721 35.519-8.721 55.297 0 23.9 5.776 49.613 22.868 76.63 23.595 37.265 56.759 50.13 76.57 57.811 4.525 1.754 9.793 3.825 12.24 5.314-1.045 9.707-14.265 43.916-26.87 72.143l-3.613 8.099c-.026.053-.079.12-.112.172-.04.086-.04.186-.08.265l-.198.443.046.02c-2.402 6.286 1.23 13.869 8.516 17.257 7.45 3.454 15.847 1.217 18.938-5.003l.092.033 4.07-8.82c1.038-2.25 25.441-55.41 32.197-81.156.86-3.288 14.325-8.86 23.232-12.539 37.65-15.562 100.669-41.606 94.343-146.47m-21.83-16.88c-7.232 47.728-23.377 76.809-86.422 110.052a487.25 487.25 0 0 0 8.404-81.526c41.5-21.68 53.768-58.679 55.998-89.153 10.316 18.776 18.23 39.162 22.02 60.627m-34.56-81.076c1.682 27.705-3.314 70.466-43.538 95.071a414.144 414.144 0 0 0-11.5-89.129c5.651-9.148 14.305-31.583 18.58-50.209a320.632 320.632 0 0 1 36.459 44.267m-47.258-54.85c-1.991 12.677-7.709 30.03-12.757 42.185a501.216 501.216 0 0 0-28.412-75.048 307.198 307.198 0 0 1 41.17 32.863m-57.422-27.848c22.968 48.373 36.936 95.204 42.084 143.48-54.458-45.286-66.057-90.29-66.804-93.45 14.425-24.667 21.306-39.969 24.72-50.03m24.403 322.374c-4.447-3.964-11.149-6.756-19.03-9.813-18.686-7.245-46.927-18.203-67.055-49.99-14.75-23.305-19.864-45.3-19.864-66.169 0-17.389 3.56-34.004 8.033-49.938.278-1.018.596-1.912.887-2.908 11.58 40.049 49.249 75.257 112.38 105.106a585.12 585.12 0 0 1-15.35 73.712m17.117-86.893c-68.63-33.204-103.93-72.534-105.22-117.171 8.012-19.074 17.024-33.207 25.289-46.027l5.79-9.168c6.867 18.607 26.268 57.838 76.08 96.133a426.773 426.773 0 0 1-1.939 76.233m17.7 73.467c-5.743 2.375-11.01 4.612-15.682 6.98 2.283-8.892 4.288-17.627 6.134-26.281 54.106-27.057 79.091-51.896 91.822-83.69-4.169 70.655-48.806 89.155-82.274 102.99"/><path class="e" d="M31.672 74.549h25.16l31.11 87.209 31.45-87.21h24.99l4.08 113.39h-17l-3.4-92.82-34.17 92.82h-12.24l-34.17-93.5-2.89 93.5h-17zm179.86 66.13c0-9.69.68-18.19-11.73-18.19-12.58 0-24.31 8.84-24.31 8.84l-4.42-12.581s13.09-9.69 33.32-9.69c18.19 0 23.97 7.48 23.97 24.65v32.47c0 9.52 8.5 9.69 8.5 9.69l-5.1 13.26c-11.73-.85-16.66-5.78-18.87-11.9a29.314 29.314 0 0 1-24.82 12.75c-13.43 0-22.1-8.33-22.1-19.72 0-16.15 16.83-25.84 45.56-29.58zm0 24.139v-13.26c-19.55 2.89-28.22 8.5-28.22 17.51 0 5.44 4.08 7.65 9.01 7.65 7.82 0 14.11-5.95 19.21-11.9zm40.289-82.45a10.239 10.239 0 0 1 10.54-10.37c6.12 0 10.71 4.42 10.71 10.37 0 5.95-4.59 10.37-10.71 10.37a10.239 10.239 0 0 1-10.54-10.37zm2.04 28.73h16.83v76.84h-16.83zm38.928 57.8s9.35 7.82 21.76 7.82c9.01 0 13.26-3.57 13.26-8.5 0-13.77-36.89-12.75-36.89-36.89 0-11.9 8.5-22.27 29.75-22.27 13.43 0 21.93 4.25 21.93 4.25l-3.91 13.77s-8.84-4.76-18.7-4.76c-8.5 0-12.24 3.23-12.24 7.65 0 13.43 36.89 12.24 36.89 36.72 0 13.94-11.05 23.29-29.92 23.29-15.98 0-25.5-6.8-25.5-6.8zm104.889-59.84c25.5 0 39.27 19.21 39.27 38.93 0 18.7-12.24 41.99-39.95 41.99-25.5 0-39.27-19.72-39.27-40.12 0-19.21 12.41-40.8 39.95-40.8zm-.17 67.49c12.92 0 21.93-10.88 21.93-26.35 0-13.6-6.46-27.71-22.1-27.71-13.09 0-22.1 10.54-22.1 25.84 0 14.28 6.97 28.22 22.27 28.22zm57.629-64.09l16.49-2.72v14.62c5.44-5.95 16.49-15.3 30.599-15.3 12.07 0 20.4 6.97 20.4 23.46v55.42h-16.83v-49.3c0-10.88-3.4-14.96-9.18-14.96-8.5 0-19.38 9.35-24.65 14.45v49.81h-16.83z"/><path class="d" d="M83.59 246.479H47.892v-21.93h97.07v21.93h-35.02v91.459H83.59zm57.463 13.6h25.84v46.238c0 8.33 1.53 11.73 6.46 11.73 5.44 0 12.24-5.44 15.64-8.67v-49.299h25.839v54.23c0 9.35 3.4 23.12 3.4 23.12l-24.82 2.21s-1.36-6.97-2.21-12.58c-5.61 5.44-15.3 12.92-28.39 12.92-12.24 0-21.76-6.971-21.76-23.46zm132.09-2.04c17.849 0 29.069 7.65 29.069 7.65l-8.5 18.359s-7.99-6.97-17.51-6.97c-10.88 0-20.74 6.63-20.74 22.27 0 14.109 8.16 21.59 19.04 21.59 11.56 0 19.89-7.65 19.89-7.65l7.82 16.83s-8.84 9.86-29.58 9.86c-27.03 0-43.52-17.51-43.52-39.1 0-22.78 18.02-42.84 44.03-42.84zm41.307-38.25l25.84-4.08v69.359h2.89l22.61-24.99h32.3l-32.81 33.83 33.319 44.03h-31.28l-24.48-34.17h-2.55v34.17H314.45zm124.44 38.25c19.89 0 34.169 12.919 34.339 40.29l-13.43 3.738-34 4.42c2.72 9.01 9.01 14.45 18.53 14.45 12.24 0 23.97-9.35 23.97-9.35l6.63 17.68a59.127 59.127 0 0 1-34 10.71c-27.37 0-41.309-19.04-41.309-40.63 0-22.779 15.47-41.308 39.27-41.308zm-14.28 35.019l21.59-2.89s-.34-13.6-9.52-13.6c-7.14 0-11.39 6.8-12.07 16.49zm63.748-30.94l24.48-3.91v16.32c3.57-5.61 11.9-16.49 23.63-16.49a15.991 15.991 0 0 1 6.63 1.19l-3.4 23.97a23.373 23.373 0 0 0-7.82-1.53c-7.99 0-14.45 6.8-17.68 10.88v45.39h-25.84z"/><path class="e" d="M130.582 374.548h17.51v48.11h62.9v-48.11h17.339v113.389h-17.34v-50.49h-62.9v50.49h-17.51zm157.59 34.51c25.5 0 39.27 19.21 39.27 38.93 0 18.699-12.24 41.989-39.95 41.989-25.5 0-39.27-19.72-39.27-40.12 0-19.21 12.41-40.8 39.95-40.8zm-.17 67.489c12.92 0 21.93-10.88 21.93-26.35 0-13.6-6.46-27.71-22.1-27.71-13.09 0-22.1 10.54-22.1 25.84 0 14.28 6.97 28.22 22.27 28.22zm57.119-65.45h16.83v49.3c0 10.71 3.23 14.96 9.52 14.96 8.67 0 18.19-8.16 22.95-12.58v-51.68h16.83v53.21c0 9.35 3.4 23.46 3.4 23.46l-16.32 1.53s-1.7-7.99-2.55-13.6c-4.93 5.27-15.64 14.28-29.75 14.28-12.41 0-20.91-6.63-20.91-23.12zm88.569 57.8s9.35 7.82 21.76 7.82c9.01 0 13.26-3.57 13.26-8.5 0-13.77-36.89-12.75-36.89-36.89 0-11.9 8.5-22.27 29.75-22.27 13.43 0 21.93 4.25 21.93 4.25l-3.91 13.77s-8.84-4.76-18.7-4.76c-8.5 0-12.24 3.23-12.24 7.65 0 13.43 36.89 12.24 36.89 36.72 0 13.94-11.05 23.29-29.92 23.29-15.98 0-25.5-6.8-25.5-6.8zm102.679-59.84c18.36 0 31.62 12.58 31.62 35.87l-9.69 2.72-41.99 5.61c1.87 13.94 10.37 22.95 23.8 22.95 12.92 0 23.63-9.52 23.63-9.52l4.759 12.24a47.882 47.882 0 0 1-30.94 11.05c-25.67 0-38.76-18.7-38.76-39.27 0-23.46 15.13-41.65 37.57-41.65zm-20.06 32.98l33.32-4.25s-1.02-15.64-14.45-15.64c-10.88 0-17.34 8.67-18.87 19.89z"/></svg>