<svg xmlns="http://www.w3.org/2000/svg" viewBox="0 0 1152 576">
  <style>
    .st0{fill:#821D1D;} .st1{fill:#3E9316;} .st2{fill:#B8D871;}
  </style>
  <path class="st0" d="M1041.854248 98.590935l-5.921875 88.967934 45.596436 40.599777-90.176575 217.368393-201.404785.331757-56.855103-227.671814L912.993591 76.034943l75.935669 68.437332-6.140869-88.350647C947.26355 37.555634 906.872437 27 864.011536 27c-141.92688 0-256.9953 115.065704-256.9953 256.979034 0 141.926239 115.06842 256.98172 256.9953 256.98172 141.91333 0 256.972229-115.055481 256.972229-256.98172 0-72.869018-30.386109-138.623657-79.129517-185.388099" id="Circle"/>
  <g id="Leaf">
    <path class="st1" d="M758.559265 106.808586c5.974976-8.696991 148.299561 83.401527 155.695374 206.0289 8.384949 138.898987-110.457825 128.993958-117.65448 156.432343-6.639099 25.304413-31.727356 79.80658-31.727356 79.80658l-9.779297-4.358337s29.583252-66.216919 27.929932-79.26886c-1.639771-13.032227-56.696716-11.949951-90.74707-65.745117-27.166443-42.910522-24.657227-82.99295-13.039001-124.429626 12.494507-44.573349 31.149536-67.872971 44.015869-89.117477 41.838439-69.00828 29.523436-70.877115 35.306029-79.348406"/>
    <path class="st2" d="M924.106689 312.243347c-6.997437-115.938705-130.507263-207.217255-158.829407-215.08429-8.80304-2.439781-13.078491 1.503876-14.831055 4.066132l-.019714.013596c-2.934814 4.295135-3.405945 8.036209-3.81781 11.34549-.809753 6.539909-2.509338 20.156204-31.786621 68.457733-.013611.006119-7.455627 11.786789-7.455627 11.786789-12.036316 18.689056-27.020264 41.954681-37.622864 79.786896-4.779846 17.048645-8.75 35.637756-8.75 55.48114 0 23.976715 5.795471 49.782074 22.944092 76.885406 23.674194 37.39035 56.948853 50.296112 76.825562 58.003876 4.540588 1.759491 9.8255 3.840424 12.281677 5.331268-1.04895 9.739166-14.312988 44.065552-26.960449 72.387024l-3.624817 8.123108c-.026489.053162-.079468.116333-.112854.169373-.0401.088989-.0401.185608-.079529.265137l-.199219.447998.046265.020386c-2.409973 6.303284 1.235229 13.911926 8.544678 17.3172 7.475342 3.465759 15.899719 1.214844 19.000427-5.025269l.092468.036011 4.083008-8.845947c1.042847-2.263794 25.526733-55.59729 32.305237-81.429352.862732-3.303192 14.372864-8.886566 23.309143-12.584137 37.775146-15.608186 101.004272-41.739168 94.657409-146.955568m-21.901916-16.935882c-7.255798 47.88623-23.455322 77.064301-86.710266 110.418518 5.204773-28.199127 8.046448-55.339172 8.431213-81.798523 41.639221-21.752319 53.947449-58.873444 56.184753-89.449234 10.350342 18.837936 18.29065 39.292404 22.0943 60.829239m-34.674439-81.347016c1.685974 27.797241-3.326416 70.701721-43.684143 95.384796-.597595-30.366394-4.46167-59.952347-11.538696-89.422729 5.669739-9.178406 14.353149-31.687393 18.642151-50.376343 12.693726 12.959488 25.38739 27.873367 36.580688 44.414276m-47.41571-55.033127c-1.997986 12.720078-7.733704 30.131165-12.799744 42.326431-7.182983-24.962357-16.570679-49.930954-28.50708-75.298592 11.285767 7.322961 25.971375 18.58912 41.306824 32.972161M762.502258 130.9879c23.044006 48.53334 37.058533 95.520752 42.223877 143.958237-54.638184-45.436737-66.276062-90.591354-67.026611-93.761368 14.472778-24.750367 21.377136-40.102845 24.802734-50.196869m24.484497 323.447494c-4.460999-3.97699-11.186401-6.778534-19.093506-9.845337-18.74823-7.273346-47.083252-18.267456-67.278809-50.15741-14.797729-23.378387-19.929749-45.446259-19.929749-66.385437 0-17.4505 3.571777-34.121063 8.059326-50.107147.278748-1.02243.597534-1.918457.889893-2.917786 11.618164 40.185089 49.413025 75.507294 112.754944 105.455688-3.325683 23.820375-8.391051 48.347749-15.402099 73.957429m17.17511-87.182129c-68.858643-33.317413-104.277527-72.775787-105.57196-117.562027 8.039612-19.136276 17.08197-33.317413 25.37384-46.180466l5.809021-9.198029c6.891357 18.668762 26.35614 58.030594 76.334106 96.453491 1.646485 24.902742 1.008851 50.260194-1.945007 76.487031m17.759033 73.711396c-5.762878 2.380066-11.047119 4.624176-15.734497 7.00415 2.290283-8.919312 4.30188-17.682831 6.15448-26.369629 54.28595-27.146149 79.354492-52.069092 92.128357-83.971893-4.182922 70.893432-48.969055 89.456055-82.54834 103.337372"/>
  </g>
  <g id="Text">
    <path class="st1" d="M31.672207 74.548828h25.159668l31.109867 87.208984 31.449707-87.208984h24.989746l4.080078 113.388672h-17l-3.399902-92.818848L93.891449 187.9375H81.651703L47.482265 94.438477 44.592129 187.9375h-17l4.080078-113.388672zM211.532074 140.678223c0-9.689941.680176-18.189941-11.72998-18.189941-12.57959 0-24.30957 8.839844-24.30957 8.839844l-4.419922-12.580078s13.089844-9.689941 33.319336-9.689941c18.189941 0 23.969727 7.47998 23.969727 24.649902v32.469727c0 9.52002 8.5 9.689941 8.5 9.689941l-5.100098 13.259766c-11.729492-.850098-16.659668-5.779785-18.869629-11.899902-2.040039 3.22998-9.859863 12.75-24.819824 12.75-13.429688 0-22.099609-8.330078-22.099609-19.719727-.000001-16.149904 16.829589-25.839845 45.559569-29.579591zm0 24.139648v-13.259766c-19.549805 2.889648-28.219727 8.499512-28.219727 17.509766 0 5.439941 4.080078 7.649902 9.009766 7.649902 7.819824 0 14.109863-5.950195 19.209961-11.899902zM251.820648 82.368652c0-5.950195 4.589844-10.370117 10.540039-10.370117 6.119629 0 10.709961 4.419922 10.709961 10.370117 0 5.949707-4.590332 10.370117-10.709961 10.370117-5.950195.000001-10.540039-4.42041-10.540039-10.370117zm2.040039 28.729493h16.82959V187.9375h-16.82959v-76.839355zM292.78891 168.897949s9.350098 7.819824 21.759766 7.819824c9.010254 0 13.259766-3.570312 13.259766-8.5 0-13.77002-36.88916-12.75-36.88916-36.889648 0-11.899902 8.499512-22.27002 29.749512-22.27002 13.429688 0 21.929688 4.25 21.929688 4.25l-3.910156 13.77002s-8.839844-4.759766-18.699707-4.759766c-8.5 0-12.239746 3.22998-12.239746 7.649902 0 13.429688 36.889648 12.239746 36.889648 36.719238 0 13.939941-11.049805 23.290039-29.919922 23.290039-15.979492 0-25.499512-6.799805-25.499512-6.799805l3.569823-14.279784zM397.677582 109.058105c25.499512 0 39.269531 19.209961 39.269531 38.929688 0 18.699707-12.239746 41.989746-39.949707 41.989746-25.499512 0-39.269531-19.719727-39.269531-40.119629 0-19.209961 12.410156-40.799805 39.949707-40.799805zm-.169922 67.489747c12.919922 0 21.929688-10.879883 21.929688-26.350098 0-13.599609-6.459961-27.709473-22.100098-27.709473-13.089844 0-22.099609 10.540039-22.099609 25.839844-.000001 14.279785 6.970214 28.219727 22.270019 28.219727zM455.136566 112.458496l16.489746-2.720215v14.620117c5.439941-5.950195 16.489746-15.300293 30.599609-15.300293 12.069794 0 20.399872 6.970215 20.399872 23.459961V187.9375h-16.830048v-49.299316c0-10.879883-3.399902-14.959961-9.179688-14.959961-8.5 0-19.379883 9.350098-24.649902 14.449707v49.80957h-16.82959v-75.479004z"/>
    <path class="st0" d="M83.590668 246.478516H47.891445v-21.929688h97.068848v21.929688h-35.019531V337.9375H83.590668v-91.458984zM141.052582 260.078125h25.839844v46.239258c0 8.330078 1.529785 11.730469 6.459961 11.730469 5.439941 0 12.239746-5.44043 15.639648-8.669922v-49.299805h25.839844v54.229492c0 9.349609 3.399902 23.120117 3.399902 23.120117l-24.819824 2.209961s-1.359863-6.970703-2.209961-12.580078c-5.609863 5.439453-15.299805 12.919922-28.389648 12.919922-12.239746 0-21.759766-6.970703-21.759766-23.459961v-56.439453zM273.142426 258.038574c17.849609 0 29.069336 7.649902 29.069336 7.649902l-8.5 18.359375s-7.989746-6.969727-17.509766-6.969727c-10.879883 0-20.739746 6.629883-20.739746 22.269531 0 14.109375 8.160156 21.589844 19.040039 21.589844 11.55957 0 19.889648-7.650391 19.889648-7.650391l7.819824 16.830078s-8.839844 9.860352-29.57959 9.860352c-27.029785 0-43.519531-17.509766-43.519531-39.099609 0-22.779784 18.02002-42.839355 44.029786-42.839355zM314.450043 219.788574l25.839355-4.07959v69.358887h2.890137l22.609863-24.989746h32.299805l-32.810059 33.830078 33.319824 44.029297h-31.279785l-24.479492-34.169922h-2.550293V337.9375h-25.839355V219.788574zM438.889496 258.038574c19.889648 0 34.169434 12.919434 34.339355 40.289551l-13.429688 3.739258-33.999512 4.419922c2.719727 9.009766 9.009766 14.450195 18.529785 14.450195 12.239746 0 23.969727-9.349609 23.969727-9.349609l6.629883 17.679688s-13.600098 10.709961-34 10.709961c-27.369629 0-41.309082-19.040039-41.309082-40.629883.000001-22.779298 15.469727-41.309083 39.269532-41.309083zm-14.279785 35.019043l21.589355-2.889648s-.339844-13.599609-9.519531-13.599609c-7.140137-.000001-11.390137 6.799804-12.069824 16.489257zM488.358246 262.118164l24.47995-3.909668v16.319824c3.569824-5.609863 11.899902-16.489746 23.629883-16.489746 4.25 0 6.629883 1.189941 6.629883 1.189941l-3.399902 23.969727s-3.740234-1.530273-7.820312-1.530273c-7.989746 0-14.449707 6.800293-17.679688 10.879883V337.9375h-25.839813v-75.819336z"/>
    <path class="st1" d="M130.581879 374.547852h17.509766v48.109375h62.899414v-48.109375h17.339844v113.388672h-17.339844v-50.489258h-62.899414v50.489258h-17.509766V374.547852zM288.172211 409.057617c25.499512 0 39.269531 19.209961 39.269531 38.929688 0 18.699219-12.239746 41.989258-39.949707 41.989258-25.499512 0-39.269531-19.719727-39.269531-40.120117 0-19.208985 12.409668-40.798829 39.949707-40.798829zm-.169922 67.489258c12.919922 0 21.929688-10.879883 21.929688-26.349609 0-13.599609-6.459961-27.709961-22.099609-27.709961-13.090332 0-22.100098 10.540039-22.100098 25.839844-.000001 14.279296 6.970214 28.219726 22.270019 28.219726zM345.120941 411.097656h16.830078v49.298828c0 10.709961 3.22998 14.959961 9.519531 14.959961 8.669922 0 18.189941-8.160156 22.949707-12.580078v-51.678711h16.830078v53.208984c0 9.349609 3.399902 23.459961 3.399902 23.459961l-16.319824 1.530273s-1.700195-7.990234-2.549805-13.600586c-4.930176 5.270508-15.640137 14.280273-29.75 14.280273-12.409668 0-20.909668-6.629883-20.909668-23.120117v-55.758788zM433.689789 468.896484s9.350098 7.820312 21.759766 7.820312c9.009766 0 13.259766-3.570312 13.259766-8.5 0-13.769531-36.889648-12.75-36.889648-36.889648 0-11.899414 8.5-22.269531 29.75-22.269531 13.429688 0 21.929688 4.25 21.929688 4.25l-3.910156 13.769531s-8.839844-4.759766-18.699707-4.759766c-8.5 0-12.239746 3.230469-12.239746 7.650391 0 13.429688 36.889648 12.239258 36.889648 36.71875 0 13.94043-11.049805 23.290039-29.919922 23.290039-15.979492 0-25.499512-6.799805-25.499512-6.799805l3.569823-14.280273zM536.368469 409.057617c18.359863 0 31.619629 12.580078 31.619629 35.869141l-9.689941 2.720703-41.989746 5.609375c1.870117 13.939453 10.370117 22.950195 23.799805 22.950195 12.919922 0 23.629883-9.520508 23.629883-9.520508l4.759766 12.240234s-11.729492 11.049805-30.939453 11.049805c-25.669891 0-38.759735-18.700195-38.759735-39.269531-.000001-23.459961 15.129851-41.649414 37.569792-41.649414zm-20.060058 32.979492l33.319824-4.25s-1.02002-15.639648-14.449707-15.639648c-10.879883 0-17.339844 8.669922-18.870117 19.889648z"/>
  </g>
</svg>
