<svg xmlns="http://www.w3.org/2000/svg" width="16in" height="8in" viewBox="0 0 1152 576">
  <defs>
    <style>
      .a { filter: url(#b); } .b { fill: #fff; } .c { mask: url(#a); } .d { fill: #821d1d; } .e { fill: #3e9316; } .f { fill: #b8d871; }
    </style>
    <filter id="b" x="606" y="30" width="516" height="516" filterUnits="userSpaceOnUse" color-interpolation-filters="sRGB">
      <feColorMatrix values="-1 0 0 0 1 0 -1 0 0 1 0 0 -1 0 1 0 0 0 1 0" result="invert"/>
      <feFlood flood-color="#fff" result="bg"/>
      <feBlend in="invert" in2="bg"/>
    </filter>
    <mask id="a" x="606" y="30" width="516" height="516" maskUnits="userSpaceOnUse">
      <g class="a">
        <rect class="b" x="982.32625" y="104.78858" width="48.6" height="144" rx="3.6" ry="3.6"/>
        <path class="b" d="M894.44069 80.73035l-146.8 120.10909A8.18792 8.18792 0 0 0 745 206.41193V423.8a7.22117 7.22117 0 0 0 7.2 7.2h293.6a7.22117 7.22117 0 0 0 7.2-7.2V206.41193a8.18792 8.18792 0 0 0-2.64069-5.57249l-146.8-120.10909a7.52392 7.52392 0 0 0-9.11862 0z"/>
      </g>
    </mask>
  </defs>
  <circle class="c d" cx="864" cy="288" r="258"/>
  <path class="e" d="M758.65166 108.347c5.95513-8.6681 147.8076 83.12446 155.17884 205.34717 8.3571 138.43822-124.491 147.88092-130.86617 146.96784-12.9591-1.85607-56.43743-6.77607-90.37534-60.39254-27.07621-42.77134-24.57464-82.71724-12.995-124.01623 12.453-44.426 31.04607-67.6475 43.86968-88.82143 41.69943-68.779 29.42533-70.64166 35.188-79.08481"/>
  <path class="f" d="M923.64978 313.09857C916.67566 197.54513 793.57549 106.5704 765.3481 98.72961c-8.77386-2.43178-13.03507 1.49878-14.78183 4.05252l-.01965.01355c-2.92505 4.28086-3.3946 8.00951-3.80521 11.3079-.807 6.51751-2.5009 20.08837-31.68162 68.22942-.01287.00678-7.43019 11.74841-7.43019 11.74841-11.99625 18.62628-26.93053 41.8153-37.49785 79.52116-4.764 16.99267-8.72095 35.51936-8.72095 55.2975 0 23.89978 5.77625 49.61273 22.86785 76.62931 23.59555 37.26612 56.759 50.12971 76.57042 57.812 4.5254 1.75345 9.7928 3.82418 12.24085 5.31347-1.04548 9.70672-14.26615 43.91575-26.87091 72.14315l-3.61278 8.09894c-.02643.05285-.07928.11925-.11242.1721-.04.08605-.04.18565-.07933.26493l-.19847.443.046.01974c-2.402 6.28646 1.23046 13.8691 8.51565 17.25692 7.45051 3.45423 15.84759 1.21759 18.938-5.00247l.09215.0332 4.06946-8.81987c1.03871-2.2502 25.44192-55.41 32.19793-81.15613.85983-3.28823 14.32516-8.85985 23.2317-12.539 37.64962-15.56233 100.66867-41.60661 94.34291-146.47076m-21.82917-16.8796c-7.23234 47.72774-23.37738 76.80886-86.42285 110.0516a487.25064 487.25064 0 0 0 8.40391-81.52608c41.50091-21.68007 53.76818-58.67856 55.998-89.15208 10.31594 18.77535 18.22991 39.162 22.02089 60.62656m-34.55986-81.07617c1.681 27.705-3.31471 70.46617-43.53841 95.0713a414.14441 414.14441 0 0 0-11.50027-89.129c5.6509-9.14782 14.30539-31.5827 18.58015-50.209a320.63246 320.63246 0 0 1 36.45852 44.26673m-47.25757-54.85031c-1.99137 12.67793-7.70867 30.0304-12.75721 42.18593a501.216 501.216 0 0 0-28.41237-75.04865 307.19845 307.19845 0 0 1 41.16958 32.86272m-57.421-27.84728c22.96745 48.37278 36.93553 95.20332 42.08361 143.47989-54.45732-45.28569-66.05657-90.29029-66.80393-93.44988 14.4247-24.66736 21.30606-39.96883 24.72031-50.03m24.40321 322.37363c-4.44686-3.96376-11.14935-6.756-19.03011-9.81319-18.68585-7.24521-46.9268-18.20281-67.0553-49.99013-14.74925-23.30488-19.86352-45.29934-19.86352-66.16837 0-17.389 3.55993-34.00442 8.03254-49.938.2778-1.01838.59558-1.91209.88693-2.90811 11.5796 40.04888 49.24887 75.25724 112.38045 105.106a585.12014 585.12014 0 0 1-15.351 73.71171m17.118-86.89308c-68.63064-33.20344-103.93115-72.53342-105.22123-117.17078 8.01289-19.07348 17.02452-33.20682 25.28947-46.027l5.7898-9.16747c6.86786 18.60664 26.26855 57.8377 76.08048 96.133a426.7731 426.7731 0 0 1-1.93852 76.23226m17.70005 73.46711c-5.74373 2.37555-11.01044 4.61219-15.68226 6.981 2.28272-8.89305 4.28764-17.62755 6.134-26.2821 54.10567-27.05656 79.09091-51.89612 91.82169-83.69022-4.16839 70.65521-48.80575 89.15547-82.27343 102.99136"/>
  <g>
    <path class="e" d="M31.67221 74.54883h25.15967l31.10986 87.209 31.44971-87.209h24.98975l4.08008 113.38867h-17l-3.3999-92.81885-34.16993 92.81885H81.6517l-34.16943-93.499-2.89014 93.499h-17zM211.53207 140.67822c0-9.68994.68018-18.18994-11.73-18.18994-12.57959 0-24.30957 8.83984-24.30957 8.83984l-4.4199-12.58012s13.08984-9.68994 33.31934-9.68994c18.18994 0 23.96973 7.48 23.96973 24.6499v32.46973c0 9.52 8.5 9.68994 8.5 9.68994l-5.1001 13.25977c-11.72949-.8501-16.65967-5.77979-18.86963-11.8999a29.31425 29.31425 0 0 1-24.81982 12.75c-13.42969 0-22.09961-8.33008-22.09961-19.71973-.00001-16.14986 16.82958-25.83977 45.55956-29.57955zm0 24.13965v-13.25976c-19.5498 2.88965-28.21973 8.49951-28.21973 17.50977 0 5.43994 4.08008 7.6499 9.00977 7.6499 7.81982-.00001 14.10989-5.9502 19.20996-11.89991zM251.82064 82.36865a10.2385 10.2385 0 0 1 10.54-10.37012c6.11963 0 10.71 4.41992 10.71 10.37012 0 5.94971-4.59033 10.37012-10.71 10.37012a10.23879 10.23879 0 0 1-10.54-10.37012zm2.04 28.72949h16.82959v76.83936h-16.82955zM292.78891 168.89795s9.3501 7.81982 21.75977 7.81982c9.01025 0 13.25977-3.57031 13.25977-8.5 0-13.77-36.88916-12.75-36.88916-36.88965 0-11.8999 8.49951-22.27 29.74951-22.27 13.42969 0 21.92969 4.25 21.92969 4.25l-3.91016 13.77s-8.83984-4.75977-18.69971-4.75977c-8.5 0-12.23975 3.23-12.23975 7.6499 0 13.42969 36.88965 12.23975 36.88965 36.71924 0 13.93994-11.0498 23.29-29.91992 23.29-15.97949 0-25.49951-6.7998-25.49951-6.7998zM397.67758 109.05811c25.49951 0 39.26953 19.21 39.26953 38.92969 0 18.69971-12.23975 41.98975-39.94971 41.98975-25.49951 0-39.26953-19.71973-39.26953-40.11963 0-19.20997 12.41013-40.79981 39.94971-40.79981zm-.16992 67.48975c12.91992 0 21.92969-10.87988 21.92969-26.3501 0-13.59961-6.46-27.70947-22.1001-27.70947-13.08984 0-22.09961 10.54-22.09961 25.83984 0 14.27978 6.97021 28.21972 22.27002 28.21972zM455.13656 112.4585l16.48975-2.72021v14.62011c5.43994-5.9502 16.48975-15.30029 30.59961-15.30029 12.06982 0 20.3999 6.97021 20.3999 23.46v55.41939h-16.83008v-49.29932c0-10.87988-3.3999-14.96-9.17969-14.96-8.5 0-19.37988 9.3501-24.6499 14.44971v49.80961h-16.82959z"/>
    <path class="d" d="M83.59066 246.47852H47.89145v-21.92969h97.06885v21.92969h-35.01954v91.459h-26.3501zM141.05258 260.07813h25.83984v46.23926c0 8.33008 1.52979 11.73047 6.46 11.73047 5.43994 0 12.23975-5.44043 15.63965-8.66992v-49.2998h25.83984v54.22949c0 9.34961 3.3999 23.12012 3.3999 23.12012l-24.81982 2.21s-1.35986-6.9707-2.21-12.58008c-5.60986 5.43945-15.2998 12.91992-28.38965 12.91992-12.23975 0-21.75977-6.9707-21.75977-23.46zM273.14242 258.03857c17.84961 0 29.06934 7.6499 29.06934 7.6499l-8.5 18.35938s-7.98975-6.96973-17.50977-6.96973c-10.87988 0-20.73975 6.62988-20.73975 22.26953 0 14.10938 8.16016 21.58984 19.04 21.58984 11.55957 0 19.88965-7.65039 19.88965-7.65039l7.81982 16.83008s-8.83984 9.86035-29.57959 9.86035c-27.02979 0-43.51953-17.50977-43.51953-39.09961.00005-22.77978 18.02007-42.83935 44.02983-42.83935zM314.45 219.78857l25.83936-4.07959v69.35889h2.89014l22.60986-24.98975h32.2998l-32.81002 33.83008 33.31986 44.0293h-31.27982l-24.47949-34.16992h-2.55029v34.16992H314.45zM438.88949 258.03857c19.88965 0 34.16943 12.91943 34.33936 40.28955l-13.42969 3.73926-33.99951 4.41992c2.71973 9.00977 9.00977 14.4502 18.52979 14.4502 12.23975 0 23.96973-9.34961 23.96973-9.34961l6.62988 17.67969a59.12741 59.12741 0 0 1-34 10.71c-27.36963 0-41.30908-19.04-41.30908-40.62988.00003-22.77934 15.46972-41.30913 39.26952-41.30913zm-14.27979 35.019l21.58936-2.88965s-.33984-13.59961-9.51953-13.59961c-7.14014.00005-11.39014 6.79985-12.06982 16.48931zM488.35824 262.11816l24.48-3.90967v16.31982c3.56982-5.60986 11.8999-16.48975 23.62988-16.48975a15.99142 15.99142 0 0 1 6.62988 1.18994l-3.3999 23.96973a23.37261 23.37261 0 0 0-7.82031-1.53027c-7.98975 0-14.44971 6.80029-17.67969 10.87988v45.38966h-25.83986z"/>
    <path class="e" d="M130.58188 374.54785h17.50977v48.10938h62.89941v-48.10938h17.33984v113.38867h-17.33985v-50.48925h-62.89941v50.48926h-17.50976zM288.17221 409.05762c25.49951 0 39.26953 19.21 39.26953 38.92969 0 18.69922-12.23975 41.98926-39.94971 41.98926-25.49951 0-39.26953-19.71973-39.26953-40.12012 0-19.20899 12.40967-40.79883 39.94971-40.79883zm-.16992 67.48926c12.91992 0 21.92969-10.87988 21.92969-26.34961 0-13.59961-6.46-27.71-22.09961-27.71-13.09033 0-22.1001 10.54-22.1001 25.83984 0 14.27934 6.97021 28.21977 22.27002 28.21977zM345.12094 411.09766H361.951v49.29883c0 10.71 3.23 14.96 9.51953 14.96 8.66992 0 18.18994-8.16016 22.94971-12.58008v-51.67875h16.83008v53.209c0 9.34961 3.3999 23.46 3.3999 23.46l-16.31982 1.53027s-1.7002-7.99023-2.5498-13.60059c-4.93018 5.27051-15.64014 14.28027-29.75 14.28027-12.40967 0-20.90967-6.62988-20.90967-23.12012zM433.68979 468.89648s9.3501 7.82031 21.75977 7.82031c9.00977 0 13.25977-3.57031 13.25977-8.5 0-13.76953-36.88965-12.75-36.88965-36.88965 0-11.89941 8.5-22.26953 29.75-22.26953 13.42969 0 21.92969 4.25 21.92969 4.25l-3.91016 13.76953s-8.83984-4.75977-18.69971-4.75977c-8.5 0-12.23975 3.23047-12.23975 7.65039 0 13.42969 36.88965 12.23926 36.88965 36.71875 0 13.94043-11.0498 23.29-29.91992 23.29-15.97949 0-25.49951-6.7998-25.49951-6.7998zM536.3685 409.05762c18.35986 0 31.61963 12.58008 31.61963 35.86914l-9.68994 2.7207-41.98975 5.60938c1.87012 13.93945 10.37012 22.9502 23.7998 22.9502 12.91992 0 23.62988-9.52051 23.62988-9.52051l4.75977 12.24023a47.882 47.882 0 0 1-30.93945 11.0498c-25.66992 0-38.75977-18.7002-38.75977-39.26953 0-23.45996 15.12988-41.64941 37.56983-41.64941zm-20.06006 32.97949l33.31982-4.25s-1.02-15.63965-14.44971-15.63965c-10.87988 0-17.33984 8.66992-18.87011 19.88965z"/>
  </g>
</svg>
