<svg xmlns="http://www.w3.org/2000/svg" viewBox="0 0 1152 576"><style>.st0{fill:#821d1d}.st1{fill:#3e9316}.st2{fill:#b8d871}</style><path class="st0" d="M1041.854 98.59l-5.922 88.969 45.597 40.6-90.177 217.368-201.405.332-56.855-227.672L912.994 76.035l75.935 68.437-6.14-88.35C947.263 37.556 906.871 27 864.011 27c-141.927 0-256.996 115.066-256.996 256.979 0 141.926 115.069 256.982 256.996 256.982 141.913 0 256.972-115.056 256.972-256.982 0-72.869-30.386-138.624-79.13-185.388" id="Circle"/><g id="Leaf"><path class="st1" d="M758.56 106.809c5.974-8.697 148.299 83.401 155.695 206.028 8.385 138.9-110.458 128.994-117.655 156.433-6.639 25.304-31.727 79.806-31.727 79.806l-9.78-4.358s29.584-66.217 27.93-79.269c-1.64-13.032-56.696-11.95-90.747-65.745-27.166-42.91-24.657-82.993-13.039-124.43 12.495-44.573 31.15-67.873 44.016-89.117 41.839-69.008 29.524-70.877 35.306-79.348"/><path class="st2" d="M924.107 312.243c-6.998-115.938-130.508-207.217-158.83-215.084-8.803-2.44-13.078 1.504-14.83 4.066l-.02.014c-2.935 4.295-3.406 8.036-3.818 11.345-.81 6.54-2.51 20.156-31.787 68.458a7518.69 7518.69 0 0 0-7.456 11.787c-12.036 18.689-27.02 41.954-37.622 79.787-4.78 17.048-8.75 35.637-8.75 55.48 0 23.978 5.795 49.783 22.944 76.886 23.674 37.39 56.949 50.296 76.825 58.004 4.54 1.76 9.826 3.84 12.282 5.331-1.049 9.74-14.313 44.066-26.96 72.387l-3.625 8.124c-.027.053-.08.116-.113.169-.04.089-.04.185-.08.265l-.199.448.046.02c-2.41 6.304 1.236 13.912 8.545 17.318 7.475 3.465 15.9 1.214 19-5.026l.093.036 4.083-8.846c1.043-2.263 25.527-55.597 32.305-81.429.863-3.303 14.373-8.887 23.31-12.584 37.774-15.608 101.004-41.74 94.657-146.956m-21.902-16.936c-7.256 47.887-23.456 77.065-86.71 110.419 5.204-28.2 8.046-55.34 8.43-81.799 41.64-21.752 53.948-58.873 56.185-89.449 10.35 18.838 18.291 39.293 22.095 60.83M867.53 213.96c1.686 27.798-3.326 70.702-43.684 95.385-.597-30.366-4.461-59.952-11.539-89.422 5.67-9.179 14.354-31.688 18.643-50.377 12.693 12.96 25.387 27.874 36.58 44.414m-47.415-55.033c-1.998 12.72-7.734 30.131-12.8 42.327-7.183-24.963-16.57-49.931-28.507-75.299 11.286 7.323 25.971 18.59 41.307 32.972m-57.613-27.94c23.044 48.534 37.059 95.522 42.224 143.96-54.638-45.438-66.276-90.592-67.026-93.762 14.472-24.75 21.377-40.103 24.802-50.197m24.485 323.447c-4.461-3.977-11.187-6.778-19.094-9.845-18.748-7.273-47.083-18.267-67.279-50.157-14.797-23.379-19.93-45.447-19.93-66.386 0-17.45 3.572-34.12 8.06-50.107.279-1.022.598-1.918.89-2.918 11.618 40.185 49.413 75.508 112.755 105.456-3.326 23.82-8.391 48.348-15.402 73.957m17.175-87.182c-68.859-33.317-104.278-72.776-105.572-117.562 8.04-19.136 17.082-33.317 25.374-46.18l5.809-9.198c6.891 18.669 26.356 58.03 76.334 96.453 1.646 24.903 1.009 50.26-1.945 76.487m17.759 73.712c-5.763 2.38-11.047 4.624-15.735 7.004 2.29-8.92 4.302-17.683 6.155-26.37 54.286-27.146 79.354-52.069 92.128-83.972-4.183 70.894-48.969 89.456-82.548 103.338"/></g><g id="Text"><path class="st1" d="M31.672 74.549h25.16l31.11 87.209 31.45-87.21h24.99l4.08 113.39h-17l-3.4-92.82-34.17 92.82h-12.24l-34.17-93.5-2.89 93.5h-17l4.08-113.39zm179.86 66.13c0-9.69.68-18.19-11.73-18.19-12.58 0-24.31 8.84-24.31 8.84l-4.42-12.581s13.09-9.69 33.32-9.69c18.19 0 23.97 7.48 23.97 24.65v32.47c0 9.52 8.5 9.69 8.5 9.69l-5.1 13.26c-11.73-.85-16.66-5.78-18.87-11.9-2.04 3.23-9.86 12.75-24.82 12.75-13.43 0-22.1-8.33-22.1-19.72 0-16.15 16.83-25.84 45.56-29.58zm0 24.139v-13.26c-19.55 2.89-28.22 8.5-28.22 17.51 0 5.44 4.08 7.65 9.01 7.65 7.82 0 14.11-5.95 19.21-11.9zm40.289-82.45c0-5.95 4.59-10.37 10.54-10.37 6.12 0 10.71 4.42 10.71 10.37 0 5.95-4.59 10.37-10.71 10.37-5.95 0-10.54-4.42-10.54-10.37zm2.04 28.73h16.83v76.84h-16.83v-76.84zm38.928 57.8s9.35 7.82 21.76 7.82c9.01 0 13.26-3.57 13.26-8.5 0-13.77-36.89-12.75-36.89-36.89 0-11.9 8.5-22.27 29.75-22.27 13.43 0 21.93 4.25 21.93 4.25l-3.91 13.77s-8.84-4.76-18.7-4.76c-8.5 0-12.24 3.23-12.24 7.65 0 13.43 36.89 12.24 36.89 36.72 0 13.94-11.05 23.29-29.92 23.29-15.98 0-25.5-6.8-25.5-6.8l3.57-14.28zm104.889-59.84c25.5 0 39.27 19.21 39.27 38.93 0 18.7-12.24 41.99-39.95 41.99-25.5 0-39.27-19.72-39.27-40.12 0-19.21 12.41-40.8 39.95-40.8zm-.17 67.49c12.92 0 21.93-10.88 21.93-26.35 0-13.6-6.46-27.71-22.1-27.71-13.09 0-22.1 10.54-22.1 25.84 0 14.28 6.97 28.22 22.27 28.22zm57.629-64.09l16.49-2.72v14.62c5.44-5.95 16.49-15.3 30.599-15.3 12.07 0 20.4 6.97 20.4 23.46v55.42h-16.83v-49.3c0-10.88-3.4-14.96-9.18-14.96-8.5 0-19.38 9.35-24.65 14.45v49.81h-16.83v-75.48z"/><path class="st0" d="M83.59 246.479H47.892v-21.93h97.07v21.93h-35.02v91.458H83.59V246.48zm57.463 13.6h25.84v46.238c0 8.33 1.53 11.73 6.46 11.73 5.44 0 12.24-5.44 15.639-8.67v-49.299h25.84v54.23c0 9.35 3.4 23.12 3.4 23.12l-24.82 2.21s-1.36-6.971-2.21-12.58c-5.61 5.44-15.3 12.92-28.39 12.92-12.24 0-21.76-6.971-21.76-23.46v-56.44zm132.09-2.04c17.849 0 29.069 7.65 29.069 7.65l-8.5 18.359s-7.99-6.97-17.51-6.97c-10.88 0-20.74 6.63-20.74 22.27 0 14.109 8.16 21.59 19.04 21.59 11.56 0 19.89-7.65 19.89-7.65l7.82 16.83s-8.84 9.86-29.58 9.86c-27.03 0-43.52-17.51-43.52-39.1 0-22.78 18.02-42.84 44.03-42.84zm41.307-38.25l25.84-4.08v69.359h2.89l22.61-24.99h32.3l-32.81 33.83 33.319 44.03h-31.28l-24.48-34.17h-2.55v34.17H314.45v-118.15zm124.44 38.25c19.89 0 34.169 12.919 34.339 40.29l-13.43 3.738-34 4.42c2.72 9.01 9.01 14.45 18.53 14.45 12.24 0 23.97-9.35 23.97-9.35l6.63 17.68s-13.6 10.71-34 10.71c-27.37 0-41.309-19.04-41.309-40.63 0-22.779 15.47-41.308 39.27-41.308zm-14.28 35.019l21.59-2.89s-.34-13.6-9.52-13.6c-7.14 0-11.39 6.8-12.07 16.49zm63.748-30.94l24.48-3.91v16.32c3.57-5.61 11.9-16.49 23.63-16.49 4.25 0 6.63 1.19 6.63 1.19l-3.4 23.97s-3.74-1.53-7.82-1.53c-7.99 0-14.45 6.8-17.68 10.88v45.39h-25.84v-75.82z"/><path class="st1" d="M130.582 374.548h17.51v48.11h62.9v-48.11h17.339v113.389h-17.34v-50.49h-62.9v50.49h-17.51v-113.39zm157.59 34.51c25.5 0 39.27 19.21 39.27 38.93 0 18.699-12.24 41.989-39.95 41.989-25.5 0-39.27-19.72-39.27-40.12 0-19.21 12.41-40.8 39.95-40.8zm-.17 67.489c12.92 0 21.93-10.88 21.93-26.35 0-13.6-6.46-27.71-22.1-27.71-13.09 0-22.1 10.54-22.1 25.84 0 14.28 6.97 28.22 22.27 28.22zm57.119-65.45h16.83v49.3c0 10.71 3.23 14.96 9.52 14.96 8.67 0 18.19-8.16 22.95-12.58v-51.68h16.83v53.21c0 9.35 3.4 23.46 3.4 23.46l-16.32 1.53s-1.7-7.99-2.55-13.6c-4.93 5.27-15.64 14.28-29.75 14.28-12.41 0-20.91-6.63-20.91-23.12v-55.76zm88.569 57.8s9.35 7.82 21.76 7.82c9.01 0 13.26-3.57 13.26-8.5 0-13.77-36.89-12.75-36.89-36.89 0-11.9 8.5-22.27 29.75-22.27 13.43 0 21.93 4.25 21.93 4.25l-3.91 13.77s-8.84-4.76-18.7-4.76c-8.5 0-12.24 3.23-12.24 7.65 0 13.43 36.89 12.24 36.89 36.72 0 13.94-11.05 23.29-29.92 23.29-15.98 0-25.5-6.8-25.5-6.8l3.57-14.28zm102.678-59.84c18.36 0 31.62 12.58 31.62 35.87l-9.69 2.72-41.99 5.61c1.87 13.94 10.37 22.95 23.8 22.95 12.92 0 23.63-9.52 23.63-9.52l4.76 12.24s-11.73 11.05-30.94 11.05c-25.67 0-38.76-18.7-38.76-39.27 0-23.46 15.13-41.65 37.57-41.65zm-20.06 32.98l33.32-4.25s-1.02-15.64-14.45-15.64c-10.88 0-17.34 8.67-18.87 19.89z"/></g></svg>